<svg id="visual" viewBox="0 0 1920 1080" width="1920" height="1080" xmlns="http://www.w3.org/2000/svg" xmlns:xlink="http://www.w3.org/1999/xlink" version="1.1"><rect x="0" y="0" width="1920" height="1080" fill="#f1f2eb"></rect><defs><linearGradient id="grad1_0" x1="43.8%" y1="100%" x2="100%" y2="0%"><stop offset="14.444444444444446%" stop-color="#f1f2eb" stop-opacity="1"></stop><stop offset="85.55555555555554%" stop-color="#f1f2eb" stop-opacity="1"></stop></linearGradient></defs><defs><linearGradient id="grad2_0" x1="0%" y1="100%" x2="56.3%" y2="0%"><stop offset="14.444444444444446%" stop-color="#f1f2eb" stop-opacity="1"></stop><stop offset="85.55555555555554%" stop-color="#f1f2eb" stop-opacity="1"></stop></linearGradient></defs><g transform="translate(1920, 1080)"><path d="M-216 0C-204.6 -19.5 -193.3 -39.1 -188.3 -61.2C-183.4 -83.3 -184.8 -107.9 -174.7 -127C-164.7 -146 -143.1 -159.5 -122.3 -168.3C-101.4 -177.1 -81.4 -181.1 -61.2 -188.3C-40.9 -195.5 -20.5 -205.7 0 -216L0 0Z" fill="#548c2f"></path></g><g transform="translate(0, 0)"><path d="M216 0C204.9 20.8 193.8 41.5 183.6 59.6C173.3 77.8 164 93.2 156.1 113.4C148.3 133.7 141.9 158.6 127 174.7C112.1 190.9 88.7 198.1 66.1 203.5C43.6 208.9 21.8 212.5 0 216L0 0Z" fill="#548c2f"></path></g></svg>